<svg width="520" height="514" viewBox="0 0 520 514" fill="none" xmlns="http://www.w3.org/2000/svg">
<g clip-path="url(#clip0)">
<path fill-rule="evenodd" clip-rule="evenodd" d="M130 387.765L125.401 392.311L123.11 390.046L127.709 385.5L130 385.5L130 387.765ZM130 447.501L125.401 442.956L123.11 445.22L127.709 449.75L130 449.75L130 447.485L130 447.501ZM67.2912 385.5L71.89 390.046L69.5987 392.311L65 387.765L65 385.5L67.2912 385.5ZM65 447.485L69.5988 442.94L71.89 445.204L67.2912 449.75L65 449.75L65 447.485ZM97.5 419.874L92.9012 424.419L90.61 422.155L95.2087 417.625L90.61 413.079L92.9012 410.815L97.5 415.36L102.099 410.815L104.39 413.079L99.7912 417.625L104.39 422.171L102.099 424.436L97.5 419.89L97.5 419.874Z" fill="#63B6C7"/>
</g>
<g clip-path="url(#clip1)">
<path fill-rule="evenodd" clip-rule="evenodd" d="M130 259.265L125.401 263.811L123.11 261.546L127.709 257L130 257L130 259.265ZM130 319.001L125.401 314.456L123.11 316.72L127.709 321.25L130 321.25L130 318.985L130 319.001ZM67.2912 257L71.89 261.546L69.5987 263.811L65 259.265L65 257L67.2912 257ZM65 318.985L69.5988 314.44L71.89 316.704L67.2912 321.25L65 321.25L65 318.985ZM97.5 291.374L92.9012 295.919L90.61 293.655L95.2087 289.125L90.61 284.579L92.9012 282.315L97.5 286.86L102.099 282.315L104.39 284.579L99.7912 289.125L104.39 293.671L102.099 295.936L97.5 291.39L97.5 291.374Z" fill="#63B6C7"/>
</g>
<g clip-path="url(#clip2)">
<path fill-rule="evenodd" clip-rule="evenodd" d="M390 259.265L385.401 263.811L383.11 261.546L387.709 257L390 257L390 259.265ZM390 319.001L385.401 314.456L383.11 316.72L387.709 321.25L390 321.25L390 318.985L390 319.001ZM327.291 257L331.89 261.546L329.599 263.811L325 259.265L325 257L327.291 257ZM325 318.985L329.599 314.44L331.89 316.704L327.291 321.25L325 321.25L325 318.985ZM357.5 291.374L352.901 295.919L350.61 293.655L355.209 289.125L350.61 284.579L352.901 282.315L357.5 286.86L362.099 282.315L364.39 284.579L359.791 289.125L364.39 293.671L362.099 295.936L357.5 291.39L357.5 291.374Z" fill="#63B6C7"/>
</g>
<g clip-path="url(#clip3)">
<path fill-rule="evenodd" clip-rule="evenodd" d="M390 387.765L385.401 392.311L383.11 390.046L387.709 385.5L390 385.5L390 387.765ZM390 447.501L385.401 442.956L383.11 445.22L387.709 449.75L390 449.75L390 447.485L390 447.501ZM327.291 385.5L331.89 390.046L329.599 392.311L325 387.765L325 385.5L327.291 385.5ZM325 447.485L329.599 442.94L331.89 445.204L327.291 449.75L325 449.75L325 447.485ZM357.5 419.874L352.901 424.419L350.61 422.155L355.209 417.625L350.61 413.079L352.901 410.815L357.5 415.36L362.099 410.815L364.39 413.079L359.791 417.625L364.39 422.171L362.099 424.436L357.5 419.89L357.5 419.874Z" fill="#63B6C7"/>
</g>
<g clip-path="url(#clip4)">
<path fill-rule="evenodd" clip-rule="evenodd" d="M260 387.765L255.401 392.311L253.11 390.046L257.709 385.5L260 385.5L260 387.765ZM260 447.501L255.401 442.956L253.11 445.22L257.709 449.75L260 449.75L260 447.485L260 447.501ZM197.291 385.5L201.89 390.046L199.599 392.311L195 387.765L195 385.5L197.291 385.5ZM195 447.485L199.599 442.94L201.89 445.204L197.291 449.75L195 449.75L195 447.485ZM227.5 419.874L222.901 424.419L220.61 422.155L225.209 417.625L220.61 413.079L222.901 410.815L227.5 415.36L232.099 410.815L234.39 413.079L229.791 417.625L234.39 422.171L232.099 424.436L227.5 419.89L227.5 419.874Z" fill="#63B6C7"/>
</g>
<g clip-path="url(#clip5)">
<path fill-rule="evenodd" clip-rule="evenodd" d="M260 259.265L255.401 263.811L253.11 261.546L257.709 257L260 257L260 259.265ZM260 319.001L255.401 314.456L253.11 316.72L257.709 321.25L260 321.25L260 318.985L260 319.001ZM197.291 257L201.89 261.546L199.599 263.811L195 259.265L195 257L197.291 257ZM195 318.985L199.599 314.44L201.89 316.704L197.291 321.25L195 321.25L195 318.985ZM227.5 291.374L222.901 295.919L220.61 293.655L225.209 289.125L220.61 284.579L222.901 282.315L227.5 286.86L232.099 282.315L234.39 284.579L229.791 289.125L234.39 293.671L232.099 295.936L227.5 291.39L227.5 291.374Z" fill="#63B6C7"/>
</g>
<g clip-path="url(#clip6)">
<path fill-rule="evenodd" clip-rule="evenodd" d="M520 259.265L515.401 263.811L513.11 261.546L517.709 257L520 257L520 259.265ZM520 319.001L515.401 314.456L513.11 316.72L517.709 321.25L520 321.25L520 318.985L520 319.001ZM457.291 257L461.89 261.546L459.599 263.811L455 259.265L455 257L457.291 257ZM455 318.985L459.599 314.44L461.89 316.704L457.291 321.25L455 321.25L455 318.985ZM487.5 291.374L482.901 295.919L480.61 293.655L485.209 289.125L480.61 284.579L482.901 282.315L487.5 286.86L492.099 282.315L494.39 284.579L489.791 289.125L494.39 293.671L492.099 295.936L487.5 291.39L487.5 291.374Z" fill="#63B6C7"/>
</g>
<g clip-path="url(#clip7)">
<path fill-rule="evenodd" clip-rule="evenodd" d="M520 387.765L515.401 392.311L513.11 390.046L517.709 385.5L520 385.5L520 387.765ZM520 447.501L515.401 442.956L513.11 445.22L517.709 449.75L520 449.75L520 447.485L520 447.501ZM457.291 385.5L461.89 390.046L459.599 392.311L455 387.765L455 385.5L457.291 385.5ZM455 447.485L459.599 442.94L461.89 445.204L457.291 449.75L455 449.75L455 447.485ZM487.5 419.874L482.901 424.419L480.61 422.155L485.209 417.625L480.61 413.079L482.901 410.815L487.5 415.36L492.099 410.815L494.39 413.079L489.791 417.625L494.39 422.171L492.099 424.436L487.5 419.89L487.5 419.874Z" fill="#63B6C7"/>
</g>
<g clip-path="url(#clip8)">
<path fill-rule="evenodd" clip-rule="evenodd" d="M130 452.015L125.401 456.561L123.11 454.296L127.709 449.75L130 449.75L130 452.015ZM130 511.751L125.401 507.206L123.11 509.47L127.709 514L130 514L130 511.735L130 511.751ZM67.2912 449.75L71.89 454.296L69.5987 456.561L65 452.015L65 449.75L67.2912 449.75ZM65 511.735L69.5988 507.19L71.89 509.454L67.2912 514L65 514L65 511.735ZM97.5 484.124L92.9012 488.669L90.61 486.405L95.2087 481.875L90.61 477.329L92.9012 475.065L97.5 479.61L102.099 475.065L104.39 477.329L99.7912 481.875L104.39 486.421L102.099 488.686L97.5 484.14L97.5 484.124Z" fill="#63B6C7"/>
</g>
<g clip-path="url(#clip9)">
<path fill-rule="evenodd" clip-rule="evenodd" d="M130 323.515L125.401 328.061L123.11 325.796L127.709 321.25L130 321.25L130 323.515ZM130 383.251L125.401 378.706L123.11 380.97L127.709 385.5L130 385.5L130 383.235L130 383.251ZM67.2912 321.25L71.89 325.796L69.5987 328.061L65 323.515L65 321.25L67.2912 321.25ZM65 383.235L69.5988 378.69L71.89 380.954L67.2912 385.5L65 385.5L65 383.235ZM97.5 355.624L92.9012 360.169L90.61 357.905L95.2087 353.375L90.61 348.829L92.9012 346.565L97.5 351.11L102.099 346.565L104.39 348.829L99.7912 353.375L104.39 357.921L102.099 360.186L97.5 355.64L97.5 355.624Z" fill="#63B6C7"/>
</g>
<g clip-path="url(#clip10)">
<path fill-rule="evenodd" clip-rule="evenodd" d="M390 323.515L385.401 328.061L383.11 325.796L387.709 321.25L390 321.25L390 323.515ZM390 383.251L385.401 378.706L383.11 380.97L387.709 385.5L390 385.5L390 383.235L390 383.251ZM327.291 321.25L331.89 325.796L329.599 328.061L325 323.515L325 321.25L327.291 321.25ZM325 383.235L329.599 378.69L331.89 380.954L327.291 385.5L325 385.5L325 383.235ZM357.5 355.624L352.901 360.169L350.61 357.905L355.209 353.375L350.61 348.829L352.901 346.565L357.5 351.11L362.099 346.565L364.39 348.829L359.791 353.375L364.39 357.921L362.099 360.186L357.5 355.64L357.5 355.624Z" fill="#63B6C7"/>
</g>
<g clip-path="url(#clip11)">
<path fill-rule="evenodd" clip-rule="evenodd" d="M390 452.015L385.401 456.561L383.11 454.296L387.709 449.75L390 449.75L390 452.015ZM390 511.751L385.401 507.206L383.11 509.47L387.709 514L390 514L390 511.735L390 511.751ZM327.291 449.75L331.89 454.296L329.599 456.561L325 452.015L325 449.75L327.291 449.75ZM325 511.735L329.599 507.19L331.89 509.454L327.291 514L325 514L325 511.735ZM357.5 484.124L352.901 488.669L350.61 486.405L355.209 481.875L350.61 477.329L352.901 475.065L357.5 479.61L362.099 475.065L364.39 477.329L359.791 481.875L364.39 486.421L362.099 488.686L357.5 484.14L357.5 484.124Z" fill="#63B6C7"/>
</g>
<g clip-path="url(#clip12)">
<path fill-rule="evenodd" clip-rule="evenodd" d="M260 452.015L255.401 456.561L253.11 454.296L257.709 449.75L260 449.75L260 452.015ZM260 511.751L255.401 507.206L253.11 509.47L257.709 514L260 514L260 511.735L260 511.751ZM197.291 449.75L201.89 454.296L199.599 456.561L195 452.015L195 449.75L197.291 449.75ZM195 511.735L199.599 507.19L201.89 509.454L197.291 514L195 514L195 511.735ZM227.5 484.124L222.901 488.669L220.61 486.405L225.209 481.875L220.61 477.329L222.901 475.065L227.5 479.61L232.099 475.065L234.39 477.329L229.791 481.875L234.39 486.421L232.099 488.686L227.5 484.14L227.5 484.124Z" fill="#63B6C7"/>
</g>
<g clip-path="url(#clip13)">
<path fill-rule="evenodd" clip-rule="evenodd" d="M260 323.515L255.401 328.061L253.11 325.796L257.709 321.25L260 321.25L260 323.515ZM260 383.251L255.401 378.706L253.11 380.97L257.709 385.5L260 385.5L260 383.235L260 383.251ZM197.291 321.25L201.89 325.796L199.599 328.061L195 323.515L195 321.25L197.291 321.25ZM195 383.235L199.599 378.69L201.89 380.954L197.291 385.5L195 385.5L195 383.235ZM227.5 355.624L222.901 360.169L220.61 357.905L225.209 353.375L220.61 348.829L222.901 346.565L227.5 351.11L232.099 346.565L234.39 348.829L229.791 353.375L234.39 357.921L232.099 360.186L227.5 355.64L227.5 355.624Z" fill="#63B6C7"/>
</g>
<g clip-path="url(#clip14)">
<path fill-rule="evenodd" clip-rule="evenodd" d="M520 323.515L515.401 328.061L513.11 325.796L517.709 321.25L520 321.25L520 323.515ZM520 383.251L515.401 378.706L513.11 380.97L517.709 385.5L520 385.5L520 383.235L520 383.251ZM457.291 321.25L461.89 325.796L459.599 328.061L455 323.515L455 321.25L457.291 321.25ZM455 383.235L459.599 378.69L461.89 380.954L457.291 385.5L455 385.5L455 383.235ZM487.5 355.624L482.901 360.169L480.61 357.905L485.209 353.375L480.61 348.829L482.901 346.565L487.5 351.11L492.099 346.565L494.39 348.829L489.791 353.375L494.39 357.921L492.099 360.186L487.5 355.64L487.5 355.624Z" fill="#63B6C7"/>
</g>
<g clip-path="url(#clip15)">
<path fill-rule="evenodd" clip-rule="evenodd" d="M520 452.015L515.401 456.561L513.11 454.296L517.709 449.75L520 449.75L520 452.015ZM520 511.751L515.401 507.206L513.11 509.47L517.709 514L520 514L520 511.735L520 511.751ZM457.291 449.75L461.89 454.296L459.599 456.561L455 452.015L455 449.75L457.291 449.75ZM455 511.735L459.599 507.19L461.89 509.454L457.291 514L455 514L455 511.735ZM487.5 484.124L482.901 488.669L480.61 486.405L485.209 481.875L480.61 477.329L482.901 475.065L487.5 479.61L492.099 475.065L494.39 477.329L489.791 481.875L494.39 486.421L492.099 488.686L487.5 484.14L487.5 484.124Z" fill="#63B6C7"/>
</g>
<g clip-path="url(#clip16)">
<path fill-rule="evenodd" clip-rule="evenodd" d="M65 387.765L60.4012 392.311L58.11 390.046L62.7087 385.5L65 385.5L65 387.765ZM65 447.501L60.4012 442.956L58.11 445.22L62.7088 449.75L65 449.75L65 447.485L65 447.501ZM2.29124 385.5L6.89 390.046L4.59875 392.311L-5.48217e-06 387.765L-5.68248e-06 385.5L2.29124 385.5ZM-2.00307e-07 447.485L4.59875 442.94L6.89 445.204L2.29125 449.75L0 449.75L-2.00307e-07 447.485ZM32.5 419.874L27.9012 424.42L25.61 422.155L30.2087 417.625L25.61 413.079L27.9012 410.815L32.5 415.36L37.0987 410.815L39.39 413.079L34.7912 417.625L39.39 422.171L37.0987 424.436L32.5 419.89L32.5 419.874Z" fill="#63B6C7"/>
</g>
<g clip-path="url(#clip17)">
<path fill-rule="evenodd" clip-rule="evenodd" d="M65 259.265L60.4012 263.811L58.11 261.546L62.7087 257L65 257L65 259.265ZM65 319.001L60.4012 314.456L58.11 316.72L62.7088 321.25L65 321.25L65 318.985L65 319.001ZM2.29124 257L6.89 261.546L4.59875 263.811L-5.48217e-06 259.265L-5.68248e-06 257L2.29124 257ZM-2.00307e-07 318.985L4.59875 314.44L6.89 316.704L2.29125 321.25L0 321.25L-2.00307e-07 318.985ZM32.5 291.374L27.9012 295.919L25.61 293.655L30.2087 289.125L25.61 284.579L27.9012 282.315L32.5 286.86L37.0987 282.315L39.39 284.579L34.7912 289.125L39.39 293.671L37.0987 295.936L32.5 291.39L32.5 291.374Z" fill="#63B6C7"/>
</g>
<g clip-path="url(#clip18)">
<path fill-rule="evenodd" clip-rule="evenodd" d="M325 259.265L320.401 263.811L318.11 261.546L322.709 257L325 257L325 259.265ZM325 319.001L320.401 314.456L318.11 316.72L322.709 321.25L325 321.25L325 318.985L325 319.001ZM262.291 257L266.89 261.546L264.599 263.811L260 259.265L260 257L262.291 257ZM260 318.985L264.599 314.44L266.89 316.704L262.291 321.25L260 321.25L260 318.985ZM292.5 291.374L287.901 295.919L285.61 293.655L290.209 289.125L285.61 284.579L287.901 282.315L292.5 286.86L297.099 282.315L299.39 284.579L294.791 289.125L299.39 293.671L297.099 295.936L292.5 291.39L292.5 291.374Z" fill="#63B6C7"/>
</g>
<g clip-path="url(#clip19)">
<path fill-rule="evenodd" clip-rule="evenodd" d="M325 387.765L320.401 392.311L318.11 390.046L322.709 385.5L325 385.5L325 387.765ZM325 447.501L320.401 442.956L318.11 445.22L322.709 449.75L325 449.75L325 447.485L325 447.501ZM262.291 385.5L266.89 390.046L264.599 392.311L260 387.765L260 385.5L262.291 385.5ZM260 447.485L264.599 442.94L266.89 445.204L262.291 449.75L260 449.75L260 447.485ZM292.5 419.874L287.901 424.419L285.61 422.155L290.209 417.625L285.61 413.079L287.901 410.815L292.5 415.36L297.099 410.815L299.39 413.079L294.791 417.625L299.39 422.171L297.099 424.436L292.5 419.89L292.5 419.874Z" fill="#63B6C7"/>
</g>
<g clip-path="url(#clip20)">
<path fill-rule="evenodd" clip-rule="evenodd" d="M195 387.765L190.401 392.311L188.11 390.046L192.709 385.5L195 385.5L195 387.765ZM195 447.501L190.401 442.956L188.11 445.22L192.709 449.75L195 449.75L195 447.485L195 447.501ZM132.291 385.5L136.89 390.046L134.599 392.311L130 387.765L130 385.5L132.291 385.5ZM130 447.485L134.599 442.94L136.89 445.204L132.291 449.75L130 449.75L130 447.485ZM162.5 419.874L157.901 424.419L155.61 422.155L160.209 417.625L155.61 413.079L157.901 410.815L162.5 415.36L167.099 410.815L169.39 413.079L164.791 417.625L169.39 422.171L167.099 424.436L162.5 419.89L162.5 419.874Z" fill="#63B6C7"/>
</g>
<g clip-path="url(#clip21)">
<path fill-rule="evenodd" clip-rule="evenodd" d="M195 259.265L190.401 263.811L188.11 261.546L192.709 257L195 257L195 259.265ZM195 319.001L190.401 314.456L188.11 316.72L192.709 321.25L195 321.25L195 318.985L195 319.001ZM132.291 257L136.89 261.546L134.599 263.811L130 259.265L130 257L132.291 257ZM130 318.985L134.599 314.44L136.89 316.704L132.291 321.25L130 321.25L130 318.985ZM162.5 291.374L157.901 295.919L155.61 293.655L160.209 289.125L155.61 284.579L157.901 282.315L162.5 286.86L167.099 282.315L169.39 284.579L164.791 289.125L169.39 293.671L167.099 295.936L162.5 291.39L162.5 291.374Z" fill="#63B6C7"/>
</g>
<g clip-path="url(#clip22)">
<path fill-rule="evenodd" clip-rule="evenodd" d="M455 259.265L450.401 263.811L448.11 261.546L452.709 257L455 257L455 259.265ZM455 319.001L450.401 314.456L448.11 316.72L452.709 321.25L455 321.25L455 318.985L455 319.001ZM392.291 257L396.89 261.546L394.599 263.811L390 259.265L390 257L392.291 257ZM390 318.985L394.599 314.44L396.89 316.704L392.291 321.25L390 321.25L390 318.985ZM422.5 291.374L417.901 295.919L415.61 293.655L420.209 289.125L415.61 284.579L417.901 282.315L422.5 286.86L427.099 282.315L429.39 284.579L424.791 289.125L429.39 293.671L427.099 295.936L422.5 291.39L422.5 291.374Z" fill="#63B6C7"/>
</g>
<g clip-path="url(#clip23)">
<path fill-rule="evenodd" clip-rule="evenodd" d="M455 387.765L450.401 392.311L448.11 390.046L452.709 385.5L455 385.5L455 387.765ZM455 447.501L450.401 442.956L448.11 445.22L452.709 449.75L455 449.75L455 447.485L455 447.501ZM392.291 385.5L396.89 390.046L394.599 392.311L390 387.765L390 385.5L392.291 385.5ZM390 447.485L394.599 442.94L396.89 445.204L392.291 449.75L390 449.75L390 447.485ZM422.5 419.874L417.901 424.419L415.61 422.155L420.209 417.625L415.61 413.079L417.901 410.815L422.5 415.36L427.099 410.815L429.39 413.079L424.791 417.625L429.39 422.171L427.099 424.436L422.5 419.89L422.5 419.874Z" fill="#63B6C7"/>
</g>
<g clip-path="url(#clip24)">
<path fill-rule="evenodd" clip-rule="evenodd" d="M65 452.015L60.4012 456.561L58.11 454.296L62.7087 449.75L65 449.75L65 452.015ZM65 511.751L60.4012 507.206L58.11 509.47L62.7088 514L65 514L65 511.735L65 511.751ZM2.29124 449.75L6.89 454.296L4.59875 456.561L-5.48217e-06 452.015L-5.68248e-06 449.75L2.29124 449.75ZM-2.00307e-07 511.735L4.59875 507.19L6.89 509.454L2.29125 514L0 514L-2.00307e-07 511.735ZM32.5 484.124L27.9012 488.669L25.61 486.405L30.2087 481.875L25.61 477.329L27.9012 475.065L32.5 479.61L37.0987 475.065L39.39 477.329L34.7912 481.875L39.39 486.421L37.0987 488.686L32.5 484.14L32.5 484.124Z" fill="#63B6C7"/>
</g>
<g clip-path="url(#clip25)">
<path fill-rule="evenodd" clip-rule="evenodd" d="M65 323.515L60.4012 328.061L58.11 325.796L62.7087 321.25L65 321.25L65 323.515ZM65 383.251L60.4012 378.706L58.11 380.97L62.7088 385.5L65 385.5L65 383.235L65 383.251ZM2.29124 321.25L6.89 325.796L4.59875 328.061L-5.48217e-06 323.515L-5.68248e-06 321.25L2.29124 321.25ZM-2.00307e-07 383.235L4.59875 378.69L6.89 380.954L2.29125 385.5L0 385.5L-2.00307e-07 383.235ZM32.5 355.624L27.9012 360.169L25.61 357.905L30.2087 353.375L25.61 348.829L27.9012 346.565L32.5 351.11L37.0987 346.565L39.39 348.829L34.7912 353.375L39.39 357.921L37.0987 360.186L32.5 355.64L32.5 355.624Z" fill="#63B6C7"/>
</g>
<g clip-path="url(#clip26)">
<path fill-rule="evenodd" clip-rule="evenodd" d="M325 323.515L320.401 328.061L318.11 325.796L322.709 321.25L325 321.25L325 323.515ZM325 383.251L320.401 378.706L318.11 380.97L322.709 385.5L325 385.5L325 383.235L325 383.251ZM262.291 321.25L266.89 325.796L264.599 328.061L260 323.515L260 321.25L262.291 321.25ZM260 383.235L264.599 378.69L266.89 380.954L262.291 385.5L260 385.5L260 383.235ZM292.5 355.624L287.901 360.169L285.61 357.905L290.209 353.375L285.61 348.829L287.901 346.565L292.5 351.11L297.099 346.565L299.39 348.829L294.791 353.375L299.39 357.921L297.099 360.186L292.5 355.64L292.5 355.624Z" fill="#63B6C7"/>
</g>
<g clip-path="url(#clip27)">
<path fill-rule="evenodd" clip-rule="evenodd" d="M325 452.015L320.401 456.561L318.11 454.296L322.709 449.75L325 449.75L325 452.015ZM325 511.751L320.401 507.206L318.11 509.47L322.709 514L325 514L325 511.735L325 511.751ZM262.291 449.75L266.89 454.296L264.599 456.561L260 452.015L260 449.75L262.291 449.75ZM260 511.735L264.599 507.19L266.89 509.454L262.291 514L260 514L260 511.735ZM292.5 484.124L287.901 488.669L285.61 486.405L290.209 481.875L285.61 477.329L287.901 475.065L292.5 479.61L297.099 475.065L299.39 477.329L294.791 481.875L299.39 486.421L297.099 488.686L292.5 484.14L292.5 484.124Z" fill="#63B6C7"/>
</g>
<g clip-path="url(#clip28)">
<path fill-rule="evenodd" clip-rule="evenodd" d="M195 452.015L190.401 456.561L188.11 454.296L192.709 449.75L195 449.75L195 452.015ZM195 511.751L190.401 507.206L188.11 509.47L192.709 514L195 514L195 511.735L195 511.751ZM132.291 449.75L136.89 454.296L134.599 456.561L130 452.015L130 449.75L132.291 449.75ZM130 511.735L134.599 507.19L136.89 509.454L132.291 514L130 514L130 511.735ZM162.5 484.124L157.901 488.669L155.61 486.405L160.209 481.875L155.61 477.329L157.901 475.065L162.5 479.61L167.099 475.065L169.39 477.329L164.791 481.875L169.39 486.421L167.099 488.686L162.5 484.14L162.5 484.124Z" fill="#63B6C7"/>
</g>
<g clip-path="url(#clip29)">
<path fill-rule="evenodd" clip-rule="evenodd" d="M195 323.515L190.401 328.061L188.11 325.796L192.709 321.25L195 321.25L195 323.515ZM195 383.251L190.401 378.706L188.11 380.97L192.709 385.5L195 385.5L195 383.235L195 383.251ZM132.291 321.25L136.89 325.796L134.599 328.061L130 323.515L130 321.25L132.291 321.25ZM130 383.235L134.599 378.69L136.89 380.954L132.291 385.5L130 385.5L130 383.235ZM162.5 355.624L157.901 360.169L155.61 357.905L160.209 353.375L155.61 348.829L157.901 346.565L162.5 351.11L167.099 346.565L169.39 348.829L164.791 353.375L169.39 357.921L167.099 360.186L162.5 355.64L162.5 355.624Z" fill="#63B6C7"/>
</g>
<g clip-path="url(#clip30)">
<path fill-rule="evenodd" clip-rule="evenodd" d="M455 323.515L450.401 328.061L448.11 325.796L452.709 321.25L455 321.25L455 323.515ZM455 383.251L450.401 378.706L448.11 380.97L452.709 385.5L455 385.5L455 383.235L455 383.251ZM392.291 321.25L396.89 325.796L394.599 328.061L390 323.515L390 321.25L392.291 321.25ZM390 383.235L394.599 378.69L396.89 380.954L392.291 385.5L390 385.5L390 383.235ZM422.5 355.624L417.901 360.169L415.61 357.905L420.209 353.375L415.61 348.829L417.901 346.565L422.5 351.11L427.099 346.565L429.39 348.829L424.791 353.375L429.39 357.921L427.099 360.186L422.5 355.64L422.5 355.624Z" fill="#63B6C7"/>
</g>
<g clip-path="url(#clip31)">
<path fill-rule="evenodd" clip-rule="evenodd" d="M455 452.015L450.401 456.561L448.11 454.296L452.709 449.75L455 449.75L455 452.015ZM455 511.751L450.401 507.206L448.11 509.47L452.709 514L455 514L455 511.735L455 511.751ZM392.291 449.75L396.89 454.296L394.599 456.561L390 452.015L390 449.75L392.291 449.75ZM390 511.735L394.599 507.19L396.89 509.454L392.291 514L390 514L390 511.735ZM422.5 484.124L417.901 488.669L415.61 486.405L420.209 481.875L415.61 477.329L417.901 475.065L422.5 479.61L427.099 475.065L429.39 477.329L424.791 481.875L429.39 486.421L427.099 488.686L422.5 484.14L422.5 484.124Z" fill="#63B6C7"/>
</g>
<g clip-path="url(#clip32)">
<path fill-rule="evenodd" clip-rule="evenodd" d="M130 130.765L125.401 135.311L123.11 133.046L127.709 128.5L130 128.5L130 130.765ZM130 190.501L125.401 185.956L123.11 188.22L127.709 192.75L130 192.75L130 190.485L130 190.501ZM67.2912 128.5L71.89 133.046L69.5987 135.311L65 130.765L65 128.5L67.2912 128.5ZM65 190.485L69.5988 185.94L71.89 188.204L67.2912 192.75L65 192.75L65 190.485ZM97.5 162.874L92.9012 167.419L90.61 165.155L95.2087 160.625L90.61 156.079L92.9012 153.815L97.5 158.36L102.099 153.815L104.39 156.079L99.7912 160.625L104.39 165.171L102.099 167.436L97.5 162.89L97.5 162.874Z" fill="#63B6C7"/>
</g>
<g clip-path="url(#clip33)">
<path fill-rule="evenodd" clip-rule="evenodd" d="M130 2.26487L125.401 6.81056L123.11 4.54575L127.709 5.93258e-05L130 5.91278e-05L130 2.26487ZM130 62.0013L125.401 57.4556L123.11 59.7204L127.709 64.2501L130 64.2501L130 61.9852L130 62.0013ZM67.2912 6.45467e-05L71.89 4.54575L69.5987 6.81057L65 2.26488L65 6.47447e-05L67.2912 6.45467e-05ZM65 61.9853L69.5988 57.4396L71.89 59.7044L67.2912 64.2501L65 64.2501L65 61.9853ZM97.5 34.3738L92.9012 38.9195L90.61 36.6547L95.2087 32.1251L90.61 27.5794L92.9012 25.3146L97.5 29.8603L102.099 25.3146L104.39 27.5794L99.7912 32.1251L104.39 36.6707L102.099 38.9356L97.5 34.3899L97.5 34.3738Z" fill="#63B6C7"/>
</g>
<g clip-path="url(#clip34)">
<path fill-rule="evenodd" clip-rule="evenodd" d="M390 2.26484L385.401 6.81053L383.11 4.54572L387.709 2.88082e-05L390 2.86102e-05L390 2.26484ZM390 62.0013L385.401 57.4556L383.11 59.7204L387.709 64.25L390 64.25L390 61.9852L390 62.0013ZM327.291 3.40291e-05L331.89 4.54572L329.599 6.81054L325 2.26485L325 3.42271e-05L327.291 3.40291e-05ZM325 61.9852L329.599 57.4395L331.89 59.7043L327.291 64.25L325 64.25L325 61.9852ZM357.5 34.3738L352.901 38.9195L350.61 36.6547L355.209 32.125L350.61 27.5793L352.901 25.3145L357.5 29.8602L362.099 25.3145L364.39 27.5793L359.791 32.125L364.39 36.6707L362.099 38.9355L357.5 34.3898L357.5 34.3738Z" fill="#63B6C7"/>
</g>
<g clip-path="url(#clip35)">
<path fill-rule="evenodd" clip-rule="evenodd" d="M390 130.765L385.401 135.311L383.11 133.046L387.709 128.5L390 128.5L390 130.765ZM390 190.501L385.401 185.956L383.11 188.22L387.709 192.75L390 192.75L390 190.485L390 190.501ZM327.291 128.5L331.89 133.046L329.599 135.311L325 130.765L325 128.5L327.291 128.5ZM325 190.485L329.599 185.94L331.89 188.204L327.291 192.75L325 192.75L325 190.485ZM357.5 162.874L352.901 167.419L350.61 165.155L355.209 160.625L350.61 156.079L352.901 153.815L357.5 158.36L362.099 153.815L364.39 156.079L359.791 160.625L364.39 165.171L362.099 167.436L357.5 162.89L357.5 162.874Z" fill="#63B6C7"/>
</g>
<g clip-path="url(#clip36)">
<path fill-rule="evenodd" clip-rule="evenodd" d="M260 130.765L255.401 135.311L253.11 133.046L257.709 128.5L260 128.5L260 130.765ZM260 190.501L255.401 185.956L253.11 188.22L257.709 192.75L260 192.75L260 190.485L260 190.501ZM197.291 128.5L201.89 133.046L199.599 135.311L195 130.765L195 128.5L197.291 128.5ZM195 190.485L199.599 185.94L201.89 188.204L197.291 192.75L195 192.75L195 190.485ZM227.5 162.874L222.901 167.419L220.61 165.155L225.209 160.625L220.61 156.079L222.901 153.815L227.5 158.36L232.099 153.815L234.39 156.079L229.791 160.625L234.39 165.171L232.099 167.436L227.5 162.89L227.5 162.874Z" fill="#63B6C7"/>
</g>
<g clip-path="url(#clip37)">
<path fill-rule="evenodd" clip-rule="evenodd" d="M260 2.26484L255.401 6.81053L253.11 4.54572L257.709 2.88082e-05L260 2.86102e-05L260 2.26484ZM260 62.0013L255.401 57.4556L253.11 59.7204L257.709 64.25L260 64.25L260 61.9852L260 62.0013ZM197.291 3.40291e-05L201.89 4.54572L199.599 6.81054L195 2.26485L195 3.42271e-05L197.291 3.40291e-05ZM195 61.9852L199.599 57.4395L201.89 59.7043L197.291 64.25L195 64.25L195 61.9852ZM227.5 34.3738L222.901 38.9195L220.61 36.6547L225.209 32.125L220.61 27.5793L222.901 25.3145L227.5 29.8602L232.099 25.3145L234.39 27.5793L229.791 32.125L234.39 36.6707L232.099 38.9355L227.5 34.3898L227.5 34.3738Z" fill="#63B6C7"/>
</g>
<g clip-path="url(#clip38)">
<path fill-rule="evenodd" clip-rule="evenodd" d="M520 2.26481L515.401 6.8105L513.11 4.54569L517.709 -1.70935e-06L520 -1.90735e-06L520 2.26481ZM520 62.0012L515.401 57.4556L513.11 59.7204L517.709 64.25L520 64.25L520 61.9852L520 62.0012ZM457.291 3.51157e-06L461.89 4.54569L459.599 6.81051L455 2.26482L455 3.70956e-06L457.291 3.51157e-06ZM455 61.9852L459.599 57.4395L461.89 59.7043L457.291 64.25L455 64.25L455 61.9852ZM487.5 34.3738L482.901 38.9194L480.61 36.6546L485.209 32.125L480.61 27.5793L482.901 25.3145L487.5 29.8602L492.099 25.3145L494.39 27.5793L489.791 32.125L494.39 36.6707L492.099 38.9355L487.5 34.3898L487.5 34.3738Z" fill="#63B6C7"/>
</g>
<g clip-path="url(#clip39)">
<path fill-rule="evenodd" clip-rule="evenodd" d="M520 130.765L515.401 135.311L513.11 133.046L517.709 128.5L520 128.5L520 130.765ZM520 190.501L515.401 185.956L513.11 188.22L517.709 192.75L520 192.75L520 190.485L520 190.501ZM457.291 128.5L461.89 133.046L459.599 135.311L455 130.765L455 128.5L457.291 128.5ZM455 190.485L459.599 185.94L461.89 188.204L457.291 192.75L455 192.75L455 190.485ZM487.5 162.874L482.901 167.419L480.61 165.155L485.209 160.625L480.61 156.079L482.901 153.815L487.5 158.36L492.099 153.815L494.39 156.079L489.791 160.625L494.39 165.171L492.099 167.436L487.5 162.89L487.5 162.874Z" fill="#63B6C7"/>
</g>
<g clip-path="url(#clip40)">
<path fill-rule="evenodd" clip-rule="evenodd" d="M130 195.015L125.401 199.561L123.11 197.296L127.709 192.75L130 192.75L130 195.015ZM130 254.751L125.401 250.206L123.11 252.47L127.709 257L130 257L130 254.735L130 254.751ZM67.2912 192.75L71.89 197.296L69.5987 199.561L65 195.015L65 192.75L67.2912 192.75ZM65 254.735L69.5988 250.19L71.89 252.454L67.2912 257L65 257L65 254.735ZM97.5 227.124L92.9012 231.669L90.61 229.405L95.2087 224.875L90.61 220.329L92.9012 218.065L97.5 222.61L102.099 218.065L104.39 220.329L99.7912 224.875L104.39 229.421L102.099 231.686L97.5 227.14L97.5 227.124Z" fill="#63B6C7"/>
</g>
<g clip-path="url(#clip41)">
<path fill-rule="evenodd" clip-rule="evenodd" d="M130 66.5148L125.401 71.0605L123.11 68.7957L127.709 64.25L130 64.25L130 66.5148ZM130 126.251L125.401 121.706L123.11 123.97L127.709 128.5L130 128.5L130 126.235L130 126.251ZM67.2912 64.25L71.89 68.7957L69.5987 71.0605L65 66.5148L65 64.25L67.2912 64.25ZM65 126.235L69.5988 121.69L71.89 123.954L67.2912 128.5L65 128.5L65 126.235ZM97.5 98.6238L92.9012 103.169L90.61 100.905L95.2087 96.375L90.61 91.8293L92.9012 89.5645L97.5 94.1102L102.099 89.5645L104.39 91.8293L99.7912 96.375L104.39 100.921L102.099 103.186L97.5 98.6398L97.5 98.6238Z" fill="#63B6C7"/>
</g>
<g clip-path="url(#clip42)">
<path fill-rule="evenodd" clip-rule="evenodd" d="M390 66.5148L385.401 71.0605L383.11 68.7957L387.709 64.25L390 64.25L390 66.5148ZM390 126.251L385.401 121.706L383.11 123.97L387.709 128.5L390 128.5L390 126.235L390 126.251ZM327.291 64.25L331.89 68.7957L329.599 71.0605L325 66.5148L325 64.25L327.291 64.25ZM325 126.235L329.599 121.69L331.89 123.954L327.291 128.5L325 128.5L325 126.235ZM357.5 98.6238L352.901 103.169L350.61 100.905L355.209 96.375L350.61 91.8293L352.901 89.5645L357.5 94.1102L362.099 89.5645L364.39 91.8293L359.791 96.375L364.39 100.921L362.099 103.186L357.5 98.6398L357.5 98.6238Z" fill="#63B6C7"/>
</g>
<g clip-path="url(#clip43)">
<path fill-rule="evenodd" clip-rule="evenodd" d="M390 195.015L385.401 199.561L383.11 197.296L387.709 192.75L390 192.75L390 195.015ZM390 254.751L385.401 250.206L383.11 252.47L387.709 257L390 257L390 254.735L390 254.751ZM327.291 192.75L331.89 197.296L329.599 199.561L325 195.015L325 192.75L327.291 192.75ZM325 254.735L329.599 250.19L331.89 252.454L327.291 257L325 257L325 254.735ZM357.5 227.124L352.901 231.669L350.61 229.405L355.209 224.875L350.61 220.329L352.901 218.065L357.5 222.61L362.099 218.065L364.39 220.329L359.791 224.875L364.39 229.421L362.099 231.686L357.5 227.14L357.5 227.124Z" fill="#63B6C7"/>
</g>
<g clip-path="url(#clip44)">
<path fill-rule="evenodd" clip-rule="evenodd" d="M260 195.015L255.401 199.561L253.11 197.296L257.709 192.75L260 192.75L260 195.015ZM260 254.751L255.401 250.206L253.11 252.47L257.709 257L260 257L260 254.735L260 254.751ZM197.291 192.75L201.89 197.296L199.599 199.561L195 195.015L195 192.75L197.291 192.75ZM195 254.735L199.599 250.19L201.89 252.454L197.291 257L195 257L195 254.735ZM227.5 227.124L222.901 231.669L220.61 229.405L225.209 224.875L220.61 220.329L222.901 218.065L227.5 222.61L232.099 218.065L234.39 220.329L229.791 224.875L234.39 229.421L232.099 231.686L227.5 227.14L227.5 227.124Z" fill="#63B6C7"/>
</g>
<g clip-path="url(#clip45)">
<path fill-rule="evenodd" clip-rule="evenodd" d="M260 66.5148L255.401 71.0605L253.11 68.7957L257.709 64.25L260 64.25L260 66.5148ZM260 126.251L255.401 121.706L253.11 123.97L257.709 128.5L260 128.5L260 126.235L260 126.251ZM197.291 64.25L201.89 68.7957L199.599 71.0605L195 66.5148L195 64.25L197.291 64.25ZM195 126.235L199.599 121.69L201.89 123.954L197.291 128.5L195 128.5L195 126.235ZM227.5 98.6238L222.901 103.169L220.61 100.905L225.209 96.375L220.61 91.8293L222.901 89.5645L227.5 94.1102L232.099 89.5645L234.39 91.8293L229.791 96.375L234.39 100.921L232.099 103.186L227.5 98.6398L227.5 98.6238Z" fill="#63B6C7"/>
</g>
<g clip-path="url(#clip46)">
<path fill-rule="evenodd" clip-rule="evenodd" d="M520 66.5148L515.401 71.0605L513.11 68.7957L517.709 64.25L520 64.25L520 66.5148ZM520 126.251L515.401 121.706L513.11 123.97L517.709 128.5L520 128.5L520 126.235L520 126.251ZM457.291 64.25L461.89 68.7957L459.599 71.0605L455 66.5148L455 64.25L457.291 64.25ZM455 126.235L459.599 121.69L461.89 123.954L457.291 128.5L455 128.5L455 126.235ZM487.5 98.6238L482.901 103.169L480.61 100.905L485.209 96.375L480.61 91.8293L482.901 89.5645L487.5 94.1102L492.099 89.5645L494.39 91.8293L489.791 96.375L494.39 100.921L492.099 103.186L487.5 98.6398L487.5 98.6238Z" fill="#63B6C7"/>
</g>
<g clip-path="url(#clip47)">
<path fill-rule="evenodd" clip-rule="evenodd" d="M520 195.015L515.401 199.561L513.11 197.296L517.709 192.75L520 192.75L520 195.015ZM520 254.751L515.401 250.206L513.11 252.47L517.709 257L520 257L520 254.735L520 254.751ZM457.291 192.75L461.89 197.296L459.599 199.561L455 195.015L455 192.75L457.291 192.75ZM455 254.735L459.599 250.19L461.89 252.454L457.291 257L455 257L455 254.735ZM487.5 227.124L482.901 231.669L480.61 229.405L485.209 224.875L480.61 220.329L482.901 218.065L487.5 222.61L492.099 218.065L494.39 220.329L489.791 224.875L494.39 229.421L492.099 231.686L487.5 227.14L487.5 227.124Z" fill="#63B6C7"/>
</g>
<g clip-path="url(#clip48)">
<path fill-rule="evenodd" clip-rule="evenodd" d="M65 130.765L60.4012 135.311L58.11 133.046L62.7087 128.5L65 128.5L65 130.765ZM65 190.501L60.4012 185.956L58.11 188.22L62.7088 192.75L65 192.75L65 190.485L65 190.501ZM2.29124 128.5L6.89 133.046L4.59875 135.311L-5.48217e-06 130.765L-5.68248e-06 128.5L2.29124 128.5ZM-2.00307e-07 190.485L4.59875 185.94L6.89 188.204L2.29125 192.75L0 192.75L-2.00307e-07 190.485ZM32.5 162.874L27.9012 167.42L25.61 165.155L30.2087 160.625L25.61 156.079L27.9012 153.815L32.5 158.36L37.0987 153.815L39.39 156.079L34.7912 160.625L39.39 165.171L37.0987 167.436L32.5 162.89L32.5 162.874Z" fill="#63B6C7"/>
</g>
<g clip-path="url(#clip49)">
<path fill-rule="evenodd" clip-rule="evenodd" d="M65 2.26487L60.4012 6.81056L58.11 4.54575L62.7087 5.93258e-05L65 5.91278e-05L65 2.26487ZM65 62.0013L60.4012 57.4556L58.11 59.7204L62.7088 64.2501L65 64.2501L65 61.9852L65 62.0013ZM2.29124 6.45467e-05L6.89 4.54575L4.59875 6.81057L-5.48217e-06 2.26488L-5.68248e-06 6.47447e-05L2.29124 6.45467e-05ZM-2.00307e-07 61.9853L4.59875 57.4396L6.89 59.7044L2.29125 64.2501L0 64.2501L-2.00307e-07 61.9853ZM32.5 34.3738L27.9012 38.9195L25.61 36.6547L30.2087 32.1251L25.61 27.5794L27.9012 25.3146L32.5 29.8603L37.0987 25.3146L39.39 27.5794L34.7912 32.1251L39.39 36.6707L37.0987 38.9356L32.5 34.3899L32.5 34.3738Z" fill="#63B6C7"/>
</g>
<g clip-path="url(#clip50)">
<path fill-rule="evenodd" clip-rule="evenodd" d="M325 2.26484L320.401 6.81053L318.11 4.54572L322.709 2.88082e-05L325 2.86102e-05L325 2.26484ZM325 62.0013L320.401 57.4556L318.11 59.7204L322.709 64.25L325 64.25L325 61.9852L325 62.0013ZM262.291 3.40291e-05L266.89 4.54572L264.599 6.81054L260 2.26485L260 3.42271e-05L262.291 3.40291e-05ZM260 61.9852L264.599 57.4395L266.89 59.7043L262.291 64.25L260 64.25L260 61.9852ZM292.5 34.3738L287.901 38.9195L285.61 36.6547L290.209 32.125L285.61 27.5793L287.901 25.3145L292.5 29.8602L297.099 25.3145L299.39 27.5793L294.791 32.125L299.39 36.6707L297.099 38.9355L292.5 34.3898L292.5 34.3738Z" fill="#63B6C7"/>
</g>
<g clip-path="url(#clip51)">
<path fill-rule="evenodd" clip-rule="evenodd" d="M325 130.765L320.401 135.311L318.11 133.046L322.709 128.5L325 128.5L325 130.765ZM325 190.501L320.401 185.956L318.11 188.22L322.709 192.75L325 192.75L325 190.485L325 190.501ZM262.291 128.5L266.89 133.046L264.599 135.311L260 130.765L260 128.5L262.291 128.5ZM260 190.485L264.599 185.94L266.89 188.204L262.291 192.75L260 192.75L260 190.485ZM292.5 162.874L287.901 167.419L285.61 165.155L290.209 160.625L285.61 156.079L287.901 153.815L292.5 158.36L297.099 153.815L299.39 156.079L294.791 160.625L299.39 165.171L297.099 167.436L292.5 162.89L292.5 162.874Z" fill="#63B6C7"/>
</g>
<g clip-path="url(#clip52)">
<path fill-rule="evenodd" clip-rule="evenodd" d="M195 130.765L190.401 135.311L188.11 133.046L192.709 128.5L195 128.5L195 130.765ZM195 190.501L190.401 185.956L188.11 188.22L192.709 192.75L195 192.75L195 190.485L195 190.501ZM132.291 128.5L136.89 133.046L134.599 135.311L130 130.765L130 128.5L132.291 128.5ZM130 190.485L134.599 185.94L136.89 188.204L132.291 192.75L130 192.75L130 190.485ZM162.5 162.874L157.901 167.419L155.61 165.155L160.209 160.625L155.61 156.079L157.901 153.815L162.5 158.36L167.099 153.815L169.39 156.079L164.791 160.625L169.39 165.171L167.099 167.436L162.5 162.89L162.5 162.874Z" fill="#63B6C7"/>
</g>
<g clip-path="url(#clip53)">
<path fill-rule="evenodd" clip-rule="evenodd" d="M195 2.26484L190.401 6.81053L188.11 4.54572L192.709 2.88082e-05L195 2.86102e-05L195 2.26484ZM195 62.0013L190.401 57.4556L188.11 59.7204L192.709 64.25L195 64.25L195 61.9852L195 62.0013ZM132.291 3.40291e-05L136.89 4.54572L134.599 6.81054L130 2.26485L130 3.42271e-05L132.291 3.40291e-05ZM130 61.9852L134.599 57.4395L136.89 59.7043L132.291 64.25L130 64.25L130 61.9852ZM162.5 34.3738L157.901 38.9195L155.61 36.6547L160.209 32.125L155.61 27.5793L157.901 25.3145L162.5 29.8602L167.099 25.3145L169.39 27.5793L164.791 32.125L169.39 36.6707L167.099 38.9355L162.5 34.3898L162.5 34.3738Z" fill="#63B6C7"/>
</g>
<g clip-path="url(#clip54)">
<path fill-rule="evenodd" clip-rule="evenodd" d="M455 2.26481L450.401 6.8105L448.11 4.54569L452.709 -1.70935e-06L455 -1.90735e-06L455 2.26481ZM455 62.0012L450.401 57.4556L448.11 59.7204L452.709 64.25L455 64.25L455 61.9852L455 62.0012ZM392.291 3.51157e-06L396.89 4.54569L394.599 6.81051L390 2.26482L390 3.70956e-06L392.291 3.51157e-06ZM390 61.9852L394.599 57.4395L396.89 59.7043L392.291 64.25L390 64.25L390 61.9852ZM422.5 34.3738L417.901 38.9194L415.61 36.6546L420.209 32.125L415.61 27.5793L417.901 25.3145L422.5 29.8602L427.099 25.3145L429.39 27.5793L424.791 32.125L429.39 36.6707L427.099 38.9355L422.5 34.3898L422.5 34.3738Z" fill="#63B6C7"/>
</g>
<g clip-path="url(#clip55)">
<path fill-rule="evenodd" clip-rule="evenodd" d="M455 130.765L450.401 135.311L448.11 133.046L452.709 128.5L455 128.5L455 130.765ZM455 190.501L450.401 185.956L448.11 188.22L452.709 192.75L455 192.75L455 190.485L455 190.501ZM392.291 128.5L396.89 133.046L394.599 135.311L390 130.765L390 128.5L392.291 128.5ZM390 190.485L394.599 185.94L396.89 188.204L392.291 192.75L390 192.75L390 190.485ZM422.5 162.874L417.901 167.419L415.61 165.155L420.209 160.625L415.61 156.079L417.901 153.815L422.5 158.36L427.099 153.815L429.39 156.079L424.791 160.625L429.39 165.171L427.099 167.436L422.5 162.89L422.5 162.874Z" fill="#63B6C7"/>
</g>
<g clip-path="url(#clip56)">
<path fill-rule="evenodd" clip-rule="evenodd" d="M65 195.015L60.4012 199.561L58.11 197.296L62.7087 192.75L65 192.75L65 195.015ZM65 254.751L60.4012 250.206L58.11 252.47L62.7088 257L65 257L65 254.735L65 254.751ZM2.29124 192.75L6.89 197.296L4.59875 199.561L-5.48217e-06 195.015L-5.68248e-06 192.75L2.29124 192.75ZM-2.00307e-07 254.735L4.59875 250.19L6.89 252.454L2.29125 257L0 257L-2.00307e-07 254.735ZM32.5 227.124L27.9012 231.67L25.61 229.405L30.2087 224.875L25.61 220.329L27.9012 218.065L32.5 222.61L37.0987 218.065L39.39 220.329L34.7912 224.875L39.39 229.421L37.0987 231.686L32.5 227.14L32.5 227.124Z" fill="#63B6C7"/>
</g>
<g clip-path="url(#clip57)">
<path fill-rule="evenodd" clip-rule="evenodd" d="M65 66.5149L60.4012 71.0606L58.11 68.7958L62.7087 64.2501L65 64.2501L65 66.5149ZM65 126.251L60.4012 121.706L58.11 123.97L62.7088 128.5L65 128.5L65 126.235L65 126.251ZM2.29124 64.2501L6.89 68.7958L4.59875 71.0606L-5.48217e-06 66.5149L-5.68248e-06 64.2501L2.29124 64.2501ZM-2.00307e-07 126.235L4.59875 121.69L6.89 123.954L2.29125 128.5L0 128.5L-2.00307e-07 126.235ZM32.5 98.6238L27.9012 103.17L25.61 100.905L30.2087 96.3751L25.61 91.8294L27.9012 89.5646L32.5 94.1103L37.0987 89.5646L39.39 91.8294L34.7912 96.3751L39.39 100.921L37.0987 103.186L32.5 98.6399L32.5 98.6238Z" fill="#63B6C7"/>
</g>
<g clip-path="url(#clip58)">
<path fill-rule="evenodd" clip-rule="evenodd" d="M325 66.5148L320.401 71.0605L318.11 68.7957L322.709 64.25L325 64.25L325 66.5148ZM325 126.251L320.401 121.706L318.11 123.97L322.709 128.5L325 128.5L325 126.235L325 126.251ZM262.291 64.25L266.89 68.7957L264.599 71.0605L260 66.5148L260 64.25L262.291 64.25ZM260 126.235L264.599 121.69L266.89 123.954L262.291 128.5L260 128.5L260 126.235ZM292.5 98.6238L287.901 103.169L285.61 100.905L290.209 96.375L285.61 91.8293L287.901 89.5645L292.5 94.1102L297.099 89.5645L299.39 91.8293L294.791 96.375L299.39 100.921L297.099 103.186L292.5 98.6398L292.5 98.6238Z" fill="#63B6C7"/>
</g>
<g clip-path="url(#clip59)">
<path fill-rule="evenodd" clip-rule="evenodd" d="M325 195.015L320.401 199.561L318.11 197.296L322.709 192.75L325 192.75L325 195.015ZM325 254.751L320.401 250.206L318.11 252.47L322.709 257L325 257L325 254.735L325 254.751ZM262.291 192.75L266.89 197.296L264.599 199.561L260 195.015L260 192.75L262.291 192.75ZM260 254.735L264.599 250.19L266.89 252.454L262.291 257L260 257L260 254.735ZM292.5 227.124L287.901 231.669L285.61 229.405L290.209 224.875L285.61 220.329L287.901 218.065L292.5 222.61L297.099 218.065L299.39 220.329L294.791 224.875L299.39 229.421L297.099 231.686L292.5 227.14L292.5 227.124Z" fill="#63B6C7"/>
</g>
<g clip-path="url(#clip60)">
<path fill-rule="evenodd" clip-rule="evenodd" d="M195 195.015L190.401 199.561L188.11 197.296L192.709 192.75L195 192.75L195 195.015ZM195 254.751L190.401 250.206L188.11 252.47L192.709 257L195 257L195 254.735L195 254.751ZM132.291 192.75L136.89 197.296L134.599 199.561L130 195.015L130 192.75L132.291 192.75ZM130 254.735L134.599 250.19L136.89 252.454L132.291 257L130 257L130 254.735ZM162.5 227.124L157.901 231.669L155.61 229.405L160.209 224.875L155.61 220.329L157.901 218.065L162.5 222.61L167.099 218.065L169.39 220.329L164.791 224.875L169.39 229.421L167.099 231.686L162.5 227.14L162.5 227.124Z" fill="#63B6C7"/>
</g>
<g clip-path="url(#clip61)">
<path fill-rule="evenodd" clip-rule="evenodd" d="M195 66.5148L190.401 71.0605L188.11 68.7957L192.709 64.25L195 64.25L195 66.5148ZM195 126.251L190.401 121.706L188.11 123.97L192.709 128.5L195 128.5L195 126.235L195 126.251ZM132.291 64.25L136.89 68.7957L134.599 71.0605L130 66.5148L130 64.25L132.291 64.25ZM130 126.235L134.599 121.69L136.89 123.954L132.291 128.5L130 128.5L130 126.235ZM162.5 98.6238L157.901 103.169L155.61 100.905L160.209 96.375L155.61 91.8293L157.901 89.5645L162.5 94.1102L167.099 89.5645L169.39 91.8293L164.791 96.375L169.39 100.921L167.099 103.186L162.5 98.6398L162.5 98.6238Z" fill="#63B6C7"/>
</g>
<g clip-path="url(#clip62)">
<path fill-rule="evenodd" clip-rule="evenodd" d="M455 66.5148L450.401 71.0605L448.11 68.7957L452.709 64.25L455 64.25L455 66.5148ZM455 126.251L450.401 121.706L448.11 123.97L452.709 128.5L455 128.5L455 126.235L455 126.251ZM392.291 64.25L396.89 68.7957L394.599 71.0605L390 66.5148L390 64.25L392.291 64.25ZM390 126.235L394.599 121.69L396.89 123.954L392.291 128.5L390 128.5L390 126.235ZM422.5 98.6238L417.901 103.169L415.61 100.905L420.209 96.375L415.61 91.8293L417.901 89.5645L422.5 94.1102L427.099 89.5645L429.39 91.8293L424.791 96.375L429.39 100.921L427.099 103.186L422.5 98.6398L422.5 98.6238Z" fill="#63B6C7"/>
</g>
<g clip-path="url(#clip63)">
<path fill-rule="evenodd" clip-rule="evenodd" d="M455 195.015L450.401 199.561L448.11 197.296L452.709 192.75L455 192.75L455 195.015ZM455 254.751L450.401 250.206L448.11 252.47L452.709 257L455 257L455 254.735L455 254.751ZM392.291 192.75L396.89 197.296L394.599 199.561L390 195.015L390 192.75L392.291 192.75ZM390 254.735L394.599 250.19L396.89 252.454L392.291 257L390 257L390 254.735ZM422.5 227.124L417.901 231.669L415.61 229.405L420.209 224.875L415.61 220.329L417.901 218.065L422.5 222.61L427.099 218.065L429.39 220.329L424.791 224.875L429.39 229.421L427.099 231.686L422.5 227.14L422.5 227.124Z" fill="#63B6C7"/>
</g>
<defs>
<clipPath id="clip0">
<rect width="65" height="64.25" fill="white" transform="translate(130 449.75) rotate(180)"/>
</clipPath>
<clipPath id="clip1">
<rect width="65" height="64.25" fill="white" transform="translate(130 321.25) rotate(180)"/>
</clipPath>
<clipPath id="clip2">
<rect width="65" height="64.25" fill="white" transform="translate(390 321.25) rotate(180)"/>
</clipPath>
<clipPath id="clip3">
<rect width="65" height="64.25" fill="white" transform="translate(390 449.75) rotate(180)"/>
</clipPath>
<clipPath id="clip4">
<rect width="65" height="64.25" fill="white" transform="translate(260 449.75) rotate(180)"/>
</clipPath>
<clipPath id="clip5">
<rect width="65" height="64.25" fill="white" transform="translate(260 321.25) rotate(180)"/>
</clipPath>
<clipPath id="clip6">
<rect width="65" height="64.25" fill="white" transform="translate(520 321.25) rotate(180)"/>
</clipPath>
<clipPath id="clip7">
<rect width="65" height="64.25" fill="white" transform="translate(520 449.75) rotate(180)"/>
</clipPath>
<clipPath id="clip8">
<rect width="65" height="64.25" fill="white" transform="translate(130 514) rotate(180)"/>
</clipPath>
<clipPath id="clip9">
<rect width="65" height="64.25" fill="white" transform="translate(130 385.5) rotate(180)"/>
</clipPath>
<clipPath id="clip10">
<rect width="65" height="64.25" fill="white" transform="translate(390 385.5) rotate(180)"/>
</clipPath>
<clipPath id="clip11">
<rect width="65" height="64.25" fill="white" transform="translate(390 514) rotate(180)"/>
</clipPath>
<clipPath id="clip12">
<rect width="65" height="64.25" fill="white" transform="translate(260 514) rotate(180)"/>
</clipPath>
<clipPath id="clip13">
<rect width="65" height="64.25" fill="white" transform="translate(260 385.5) rotate(180)"/>
</clipPath>
<clipPath id="clip14">
<rect width="65" height="64.25" fill="white" transform="translate(520 385.5) rotate(180)"/>
</clipPath>
<clipPath id="clip15">
<rect width="65" height="64.25" fill="white" transform="translate(520 514) rotate(180)"/>
</clipPath>
<clipPath id="clip16">
<rect width="65" height="64.25" fill="white" transform="translate(65 449.75) rotate(180)"/>
</clipPath>
<clipPath id="clip17">
<rect width="65" height="64.25" fill="white" transform="translate(65 321.25) rotate(180)"/>
</clipPath>
<clipPath id="clip18">
<rect width="65" height="64.25" fill="white" transform="translate(325 321.25) rotate(180)"/>
</clipPath>
<clipPath id="clip19">
<rect width="65" height="64.25" fill="white" transform="translate(325 449.75) rotate(180)"/>
</clipPath>
<clipPath id="clip20">
<rect width="65" height="64.25" fill="white" transform="translate(195 449.75) rotate(180)"/>
</clipPath>
<clipPath id="clip21">
<rect width="65" height="64.25" fill="white" transform="translate(195 321.25) rotate(180)"/>
</clipPath>
<clipPath id="clip22">
<rect width="65" height="64.25" fill="white" transform="translate(455 321.25) rotate(180)"/>
</clipPath>
<clipPath id="clip23">
<rect width="65" height="64.25" fill="white" transform="translate(455 449.75) rotate(180)"/>
</clipPath>
<clipPath id="clip24">
<rect width="65" height="64.25" fill="white" transform="translate(65 514) rotate(180)"/>
</clipPath>
<clipPath id="clip25">
<rect width="65" height="64.25" fill="white" transform="translate(65 385.5) rotate(180)"/>
</clipPath>
<clipPath id="clip26">
<rect width="65" height="64.25" fill="white" transform="translate(325 385.5) rotate(180)"/>
</clipPath>
<clipPath id="clip27">
<rect width="65" height="64.25" fill="white" transform="translate(325 514) rotate(180)"/>
</clipPath>
<clipPath id="clip28">
<rect width="65" height="64.25" fill="white" transform="translate(195 514) rotate(180)"/>
</clipPath>
<clipPath id="clip29">
<rect width="65" height="64.25" fill="white" transform="translate(195 385.5) rotate(180)"/>
</clipPath>
<clipPath id="clip30">
<rect width="65" height="64.25" fill="white" transform="translate(455 385.5) rotate(180)"/>
</clipPath>
<clipPath id="clip31">
<rect width="65" height="64.25" fill="white" transform="translate(455 514) rotate(180)"/>
</clipPath>
<clipPath id="clip32">
<rect width="65" height="64.25" fill="white" transform="translate(130 192.75) rotate(180)"/>
</clipPath>
<clipPath id="clip33">
<rect width="65" height="64.25" fill="white" transform="translate(130 64.2501) rotate(180)"/>
</clipPath>
<clipPath id="clip34">
<rect width="65" height="64.25" fill="white" transform="translate(390 64.25) rotate(180)"/>
</clipPath>
<clipPath id="clip35">
<rect width="65" height="64.25" fill="white" transform="translate(390 192.75) rotate(180)"/>
</clipPath>
<clipPath id="clip36">
<rect width="65" height="64.25" fill="white" transform="translate(260 192.75) rotate(180)"/>
</clipPath>
<clipPath id="clip37">
<rect width="65" height="64.25" fill="white" transform="translate(260 64.25) rotate(180)"/>
</clipPath>
<clipPath id="clip38">
<rect width="65" height="64.25" fill="white" transform="translate(520 64.25) rotate(180)"/>
</clipPath>
<clipPath id="clip39">
<rect width="65" height="64.25" fill="white" transform="translate(520 192.75) rotate(180)"/>
</clipPath>
<clipPath id="clip40">
<rect width="65" height="64.25" fill="white" transform="translate(130 257) rotate(180)"/>
</clipPath>
<clipPath id="clip41">
<rect width="65" height="64.25" fill="white" transform="translate(130 128.5) rotate(180)"/>
</clipPath>
<clipPath id="clip42">
<rect width="65" height="64.25" fill="white" transform="translate(390 128.5) rotate(180)"/>
</clipPath>
<clipPath id="clip43">
<rect width="65" height="64.25" fill="white" transform="translate(390 257) rotate(180)"/>
</clipPath>
<clipPath id="clip44">
<rect width="65" height="64.25" fill="white" transform="translate(260 257) rotate(180)"/>
</clipPath>
<clipPath id="clip45">
<rect width="65" height="64.25" fill="white" transform="translate(260 128.5) rotate(180)"/>
</clipPath>
<clipPath id="clip46">
<rect width="65" height="64.25" fill="white" transform="translate(520 128.5) rotate(180)"/>
</clipPath>
<clipPath id="clip47">
<rect width="65" height="64.25" fill="white" transform="translate(520 257) rotate(180)"/>
</clipPath>
<clipPath id="clip48">
<rect width="65" height="64.25" fill="white" transform="translate(65 192.75) rotate(180)"/>
</clipPath>
<clipPath id="clip49">
<rect width="65" height="64.25" fill="white" transform="translate(65 64.2501) rotate(180)"/>
</clipPath>
<clipPath id="clip50">
<rect width="65" height="64.25" fill="white" transform="translate(325 64.25) rotate(180)"/>
</clipPath>
<clipPath id="clip51">
<rect width="65" height="64.25" fill="white" transform="translate(325 192.75) rotate(180)"/>
</clipPath>
<clipPath id="clip52">
<rect width="65" height="64.25" fill="white" transform="translate(195 192.75) rotate(180)"/>
</clipPath>
<clipPath id="clip53">
<rect width="65" height="64.25" fill="white" transform="translate(195 64.25) rotate(180)"/>
</clipPath>
<clipPath id="clip54">
<rect width="65" height="64.25" fill="white" transform="translate(455 64.25) rotate(180)"/>
</clipPath>
<clipPath id="clip55">
<rect width="65" height="64.25" fill="white" transform="translate(455 192.75) rotate(180)"/>
</clipPath>
<clipPath id="clip56">
<rect width="65" height="64.25" fill="white" transform="translate(65 257) rotate(180)"/>
</clipPath>
<clipPath id="clip57">
<rect width="65" height="64.25" fill="white" transform="translate(65 128.5) rotate(180)"/>
</clipPath>
<clipPath id="clip58">
<rect width="65" height="64.25" fill="white" transform="translate(325 128.5) rotate(180)"/>
</clipPath>
<clipPath id="clip59">
<rect width="65" height="64.25" fill="white" transform="translate(325 257) rotate(180)"/>
</clipPath>
<clipPath id="clip60">
<rect width="65" height="64.25" fill="white" transform="translate(195 257) rotate(180)"/>
</clipPath>
<clipPath id="clip61">
<rect width="65" height="64.25" fill="white" transform="translate(195 128.5) rotate(180)"/>
</clipPath>
<clipPath id="clip62">
<rect width="65" height="64.25" fill="white" transform="translate(455 128.5) rotate(180)"/>
</clipPath>
<clipPath id="clip63">
<rect width="65" height="64.25" fill="white" transform="translate(455 257) rotate(180)"/>
</clipPath>
</defs>
</svg>
